<svg xmlns="http://www.w3.org/2000/svg"  viewBox="0 0 100 100" width="500px" height="500px"><path fill="#8f9eb6" d="M50,10.5c-21.8,0-39.5,17.7-39.5,39.5S28.2,89.5,50,89.5l0,0c21.8,0,39.5-17.7,39.5-39.5S71.8,10.5,50,10.5	L50,10.5z"/><circle cx="50" cy="50" r="34.5" fill="#fefdef"/><circle cx="50" cy="50" r="39.5" fill="none" stroke="#1f212b" stroke-miterlimit="10" stroke-width="2"/><path fill="none" stroke="#1f212b" stroke-linecap="round" stroke-miterlimit="10" d="M83.4,41.5c0.2,0.8,0.4,1.7,0.5,2.5"/><path fill="none" stroke="#1f212b" stroke-linecap="round" stroke-miterlimit="10" d="M84.4,47c0.1,1,0.1,2,0.1,3c0,19.1-15.4,34.5-34.5,34.5S15.5,69.1,15.5,50S30.9,15.5,50,15.5	c13.6,0,25.4,7.9,31,19.4"/><line x1="50" x2="50" y1="15.5" y2="19.5" fill="none" stroke="#1f212b" stroke-linecap="round" stroke-miterlimit="10"/><line x1="25.6" x2="28.4" y1="25.6" y2="28.4" fill="none" stroke="#1f212b" stroke-linecap="round" stroke-miterlimit="10"/><line x1="15.5" x2="19.5" y1="50" y2="50" fill="none" stroke="#1f212b" stroke-linecap="round" stroke-miterlimit="10"/><line x1="25.6" x2="28.4" y1="74.4" y2="71.6" fill="none" stroke="#1f212b" stroke-linecap="round" stroke-miterlimit="10"/><line x1="50" x2="50" y1="84.5" y2="80.5" fill="none" stroke="#1f212b" stroke-linecap="round" stroke-miterlimit="10"/><line x1="74.4" x2="71.6" y1="74.4" y2="71.6" fill="none" stroke="#1f212b" stroke-linecap="round" stroke-miterlimit="10"/><line x1="84.5" x2="80.5" y1="50" y2="50" fill="none" stroke="#1f212b" stroke-linecap="round" stroke-miterlimit="10"/><line x1="74.4" x2="71.6" y1="25.6" y2="28.4" fill="none" stroke="#1f212b" stroke-linecap="round" stroke-miterlimit="10"/><path fill="#1f212b" d="M69,50c0,0.5-0.5,1-1,1H50v-2h18C68.5,49,69,49.5,69,50z"/><path fill="#1f212b" d="M51,24v26h-2V24c0-0.5,0.5-1,1-1S51,23.5,51,24z"/><path fill="#f37e98" d="M55.6,43l-22,22c-0.4,0.4-0.4,1,0,1.4s1,0.4,1.4,0l22-22c1.1,0.6,2.5,0.3,3.4-0.6l1.4-1.4	c1.2-1.2,1.2-3.1,0-4.2s-3.1-1.2-4.2,0l-1.4,1.4C55.3,40.5,55.1,41.9,55.6,43z"/><path fill="none" stroke="#1f212b" stroke-linecap="round" stroke-miterlimit="10" d="M55.6,43l-22,22c-0.4,0.4-0.4,1,0,1.4s1,0.4,1.4,0l22-22c1.1,0.6,2.5,0.3,3.4-0.6l1.4-1.4	c1.2-1.2,1.2-3.1,0-4.2s-3.1-1.2-4.2,0l-1.4,1.4C55.3,40.5,55.1,41.9,55.6,43z"/><circle cx="50" cy="50" r="3.5" fill="#fef6aa"/><circle cx="50" cy="50" r="3.5" fill="none" stroke="#1f212b" stroke-linecap="round" stroke-miterlimit="10"/></svg>